<svg width="222" height="27" viewBox="0 0 222 27" fill="none" xmlns="http://www.w3.org/2000/svg">
<g clip-path="url(#clip0)">
<path d="M19.7317 5.61212C19.5943 5.39135 19.4065 5.20641 19.1837 5.07256C18.4766 4.6303 16.4306 3.71482 11.6136 3.58657V-0.000164724C10.8695 -0.00427529 10.1275 0.0818559 9.40404 0.256346V3.58657C4.56503 3.71482 2.51894 4.63473 1.81187 5.07256C1.58998 5.20759 1.4024 5.39228 1.26389 5.61212C0.989899 6.05438 0.539141 7.08927 0.256313 9.15021C1.08262 9.19727 1.9116 9.14829 2.72664 9.00426C2.78819 8.14005 2.94681 7.28552 3.19949 6.45684C3.27482 6.26928 3.41207 6.1132 3.58838 6.01458C4.1673 5.67404 5.76263 5.06372 9.38636 5.06372V12.8254H1.70139C0 12.8254 0 12.8254 0 14.3335C0.0883838 18.8667 0.883838 20.7419 1.25947 21.4097C1.40187 21.622 1.5908 21.7989 1.81187 21.9271C2.51894 22.3694 4.56502 23.2849 9.38636 23.4087V26.9777C10.1308 26.9825 10.873 26.8949 11.596 26.7168V23.4087C16.4129 23.2849 18.459 22.365 19.166 21.9271C19.3888 21.7933 19.5767 21.6083 19.714 21.3876C20.1559 20.702 20.9823 18.6455 20.9823 13.4976C20.9823 8.34971 20.1515 6.29762 19.7317 5.61212ZM17.4072 5.99689C17.5835 6.09551 17.7208 6.25159 17.7961 6.43915C18.0038 7.00966 18.4192 8.75217 18.4634 12.7989H11.6136V5.04603C15.2374 5.04603 16.8327 5.65635 17.4072 5.99689ZM3.58838 21.0028C3.41207 20.9042 3.27482 20.7481 3.19949 20.5605C3.00063 20.021 2.61174 18.3802 2.54545 14.7713C2.54545 14.2008 2.54545 14.2008 3.0846 14.2008H9.38636V21.9536C5.74495 21.9536 4.1673 21.3433 3.58838 21.0028ZM17.4072 21.0028C16.8327 21.3433 15.2374 21.9536 11.6136 21.9536V14.1831H18.4634C18.4192 18.2298 18.0215 19.9723 17.7961 20.5428C17.7242 20.737 17.5866 20.8997 17.4072 21.0028Z" fill="#C39C4F"/>
</g>
<path d="M34.9766 20H29.8008V19.0039L31.4805 18.6035V7.11914L29.8008 6.71875V5.72266H34.9766V6.71875L33.2969 7.11914V18.6035L34.9766 19.0039V20ZM41.8809 20H40.0547V7.32422H35.9727V5.72266H45.9531V7.32422H41.8809V20ZM55.2598 20L53.6973 15.5762H48.375L46.793 20H44.957L50.2012 5.66406H51.8613L57.1152 20H55.2598ZM53.1211 13.9648L51.6758 9.82422C51.6367 9.70703 51.5879 9.5638 51.5293 9.39453C51.4772 9.22526 51.4219 9.04297 51.3633 8.84766C51.3047 8.65234 51.2461 8.45052 51.1875 8.24219C51.1289 8.02734 51.0736 7.81901 51.0215 7.61719C50.9759 7.81901 50.9238 8.02734 50.8652 8.24219C50.8066 8.45703 50.748 8.66536 50.6895 8.86719C50.6309 9.0625 50.5723 9.24479 50.5137 9.41406C50.4616 9.57682 50.416 9.71354 50.377 9.82422L48.9609 13.9648H53.1211ZM59.0684 20V5.72266H60.8848V18.3789H66.4805V20H59.0684ZM72.9258 20H67.75V19.0039L69.4297 18.6035V7.11914L67.75 6.71875V5.72266H72.9258V6.71875L71.2461 7.11914V18.6035L72.9258 19.0039V20ZM84.0293 20L82.4668 15.5762H77.1445L75.5625 20H73.7266L78.9707 5.66406H80.6309L85.8848 20H84.0293ZM81.8906 13.9648L80.4453 9.82422C80.4062 9.70703 80.3574 9.5638 80.2988 9.39453C80.2467 9.22526 80.1914 9.04297 80.1328 8.84766C80.0742 8.65234 80.0156 8.45052 79.957 8.24219C79.8984 8.02734 79.8431 7.81901 79.791 7.61719C79.7454 7.81901 79.6934 8.02734 79.6348 8.24219C79.5762 8.45703 79.5176 8.66536 79.459 8.86719C79.4004 9.0625 79.3418 9.24479 79.2832 9.41406C79.2311 9.57682 79.1855 9.71354 79.1465 9.82422L77.7305 13.9648H81.8906ZM98.5312 20H96.4316L89.4102 8.18359H89.332C89.3711 8.6849 89.4036 9.18294 89.4297 9.67773C89.4557 10.1009 89.4753 10.5436 89.4883 11.0059C89.5078 11.4681 89.5176 11.8848 89.5176 12.2559V20H87.8379V5.72266H89.918L96.9102 17.4805H96.9785C96.959 16.9857 96.9362 16.4974 96.9102 16.0156C96.9036 15.8073 96.8939 15.5957 96.8809 15.3809C96.8743 15.1595 96.8646 14.9414 96.8516 14.7266C96.8451 14.5052 96.8385 14.2936 96.832 14.0918C96.832 13.89 96.832 13.7044 96.832 13.5352V5.72266H98.5312V20ZM115.982 20L114.42 15.5762H109.098L107.516 20H105.68L110.924 5.66406H112.584L117.838 20H115.982ZM113.844 13.9648L112.398 9.82422C112.359 9.70703 112.311 9.5638 112.252 9.39453C112.2 9.22526 112.145 9.04297 112.086 8.84766C112.027 8.65234 111.969 8.45052 111.91 8.24219C111.852 8.02734 111.796 7.81901 111.744 7.61719C111.699 7.81901 111.646 8.02734 111.588 8.24219C111.529 8.45703 111.471 8.66536 111.412 8.86719C111.354 9.0625 111.295 9.24479 111.236 9.41406C111.184 9.57682 111.139 9.71354 111.1 9.82422L109.684 13.9648H113.844ZM122.74 20H120.914V7.32422H116.832V5.72266H126.812V7.32422H122.74V20ZM136.383 20H128.971V5.72266H136.383V7.32422H130.787V11.7383H136.012V13.3203H130.787V18.3984H136.383V20ZM139.537 20V5.72266H141.354V18.3789H146.949V20H139.537ZM153.395 20H148.219V19.0039L149.898 18.6035V7.11914L148.219 6.71875V5.72266H153.395V6.71875L151.715 7.11914V18.6035L153.395 19.0039V20ZM163.551 20H156.139V5.72266H163.551V7.32422H157.955V11.7383H163.18V13.3203H157.955V18.3984H163.551V20ZM168.521 14.1016V20H166.705V5.72266H170.182C171.913 5.72266 173.193 6.05794 174.02 6.72852C174.846 7.39909 175.26 8.41471 175.26 9.77539C175.26 10.3418 175.178 10.8366 175.016 11.2598C174.859 11.6829 174.648 12.0475 174.381 12.3535C174.12 12.653 173.821 12.9036 173.482 13.1055C173.144 13.3073 172.796 13.4733 172.438 13.6035L176.324 20H174.186L170.758 14.1016H168.521ZM168.521 12.5586H170.123C170.709 12.5586 171.207 12.5033 171.617 12.3926C172.027 12.2754 172.363 12.1061 172.623 11.8848C172.89 11.6569 173.082 11.377 173.199 11.0449C173.323 10.7064 173.385 10.3125 173.385 9.86328C173.385 9.39453 173.316 8.9974 173.18 8.67188C173.049 8.34635 172.848 8.07943 172.574 7.87109C172.307 7.66276 171.965 7.51302 171.549 7.42188C171.139 7.32422 170.65 7.27539 170.084 7.27539H168.521V12.5586ZM191.217 16.1816C191.217 16.8132 191.103 17.3796 190.875 17.8809C190.654 18.3757 190.335 18.7956 189.918 19.1406C189.501 19.4857 188.993 19.7493 188.395 19.9316C187.796 20.1074 187.122 20.1953 186.373 20.1953C185.65 20.1953 184.973 20.1367 184.342 20.0195C183.717 19.9089 183.193 19.7428 182.77 19.5215V17.7832C182.991 17.8874 183.242 17.9915 183.521 18.0957C183.808 18.1934 184.107 18.2812 184.42 18.3594C184.732 18.4375 185.055 18.5026 185.387 18.5547C185.719 18.6003 186.048 18.623 186.373 18.623C187.415 18.623 188.183 18.4277 188.678 18.0371C189.179 17.6465 189.43 17.0866 189.43 16.3574C189.43 16.0059 189.381 15.6999 189.283 15.4395C189.192 15.179 189.026 14.9414 188.785 14.7266C188.551 14.5052 188.235 14.2936 187.838 14.0918C187.441 13.8835 186.939 13.6589 186.334 13.418C185.755 13.1901 185.25 12.9427 184.82 12.6758C184.397 12.4023 184.046 12.0964 183.766 11.7578C183.492 11.4193 183.287 11.0352 183.15 10.6055C183.02 10.1758 182.955 9.6875 182.955 9.14062C182.955 8.56771 183.059 8.05664 183.268 7.60742C183.476 7.1582 183.769 6.7806 184.146 6.47461C184.524 6.16211 184.973 5.92448 185.494 5.76172C186.021 5.59896 186.601 5.51758 187.232 5.51758C188.007 5.51758 188.704 5.59245 189.322 5.74219C189.941 5.88542 190.491 6.07096 190.973 6.29883L190.318 7.82227C189.895 7.63346 189.413 7.4707 188.873 7.33398C188.339 7.19076 187.786 7.11914 187.213 7.11914C186.419 7.11914 185.803 7.30469 185.367 7.67578C184.931 8.04036 184.713 8.53516 184.713 9.16016C184.713 9.53125 184.762 9.85352 184.859 10.127C184.957 10.3939 185.12 10.638 185.348 10.8594C185.576 11.0742 185.875 11.2793 186.246 11.4746C186.624 11.6634 187.086 11.8652 187.633 12.0801C188.225 12.3145 188.743 12.5553 189.186 12.8027C189.635 13.0501 190.009 13.3301 190.309 13.6426C190.608 13.9551 190.833 14.3164 190.982 14.7266C191.139 15.1367 191.217 15.6217 191.217 16.1816ZM193.58 18.916C193.58 18.6686 193.613 18.4603 193.678 18.291C193.743 18.1152 193.831 17.9753 193.941 17.8711C194.052 17.7604 194.182 17.6823 194.332 17.6367C194.482 17.5846 194.645 17.5586 194.82 17.5586C194.99 17.5586 195.149 17.5846 195.299 17.6367C195.455 17.6823 195.589 17.7604 195.699 17.8711C195.81 17.9753 195.898 18.1152 195.963 18.291C196.028 18.4603 196.061 18.6686 196.061 18.916C196.061 19.1569 196.028 19.3652 195.963 19.541C195.898 19.7103 195.81 19.8503 195.699 19.9609C195.589 20.0716 195.455 20.153 195.299 20.2051C195.149 20.2572 194.99 20.2832 194.82 20.2832C194.645 20.2832 194.482 20.2572 194.332 20.2051C194.182 20.153 194.052 20.0716 193.941 19.9609C193.831 19.8503 193.743 19.7103 193.678 19.541C193.613 19.3652 193.58 19.1569 193.58 18.916ZM203.854 9.08203C204.042 9.08203 204.254 9.0918 204.488 9.11133C204.723 9.12435 204.924 9.14714 205.094 9.17969L204.859 10.8203C204.677 10.7878 204.488 10.7617 204.293 10.7422C204.104 10.7161 203.925 10.7031 203.756 10.7031C203.346 10.7031 202.971 10.7878 202.633 10.957C202.294 11.1198 202.001 11.3574 201.754 11.6699C201.513 11.9759 201.324 12.347 201.188 12.7832C201.057 13.2129 200.992 13.6914 200.992 14.2188V20H199.215V9.27734H200.66L200.875 11.2402H200.953C201.116 10.9603 201.288 10.6901 201.471 10.4297C201.66 10.1693 201.868 9.94141 202.096 9.74609C202.33 9.54427 202.59 9.38477 202.877 9.26758C203.163 9.14388 203.489 9.08203 203.854 9.08203ZM206.939 18.916C206.939 18.6686 206.972 18.4603 207.037 18.291C207.102 18.1152 207.19 17.9753 207.301 17.8711C207.411 17.7604 207.542 17.6823 207.691 17.6367C207.841 17.5846 208.004 17.5586 208.18 17.5586C208.349 17.5586 208.508 17.5846 208.658 17.6367C208.814 17.6823 208.948 17.7604 209.059 17.8711C209.169 17.9753 209.257 18.1152 209.322 18.291C209.387 18.4603 209.42 18.6686 209.42 18.916C209.42 19.1569 209.387 19.3652 209.322 19.541C209.257 19.7103 209.169 19.8503 209.059 19.9609C208.948 20.0716 208.814 20.153 208.658 20.2051C208.508 20.2572 208.349 20.2832 208.18 20.2832C208.004 20.2832 207.841 20.2572 207.691 20.2051C207.542 20.153 207.411 20.0716 207.301 19.9609C207.19 19.8503 207.102 19.7103 207.037 19.541C206.972 19.3652 206.939 19.1569 206.939 18.916ZM214.352 20H212.574V4.80469H214.352V20ZM217.486 18.916C217.486 18.6686 217.519 18.4603 217.584 18.291C217.649 18.1152 217.737 17.9753 217.848 17.8711C217.958 17.7604 218.089 17.6823 218.238 17.6367C218.388 17.5846 218.551 17.5586 218.727 17.5586C218.896 17.5586 219.055 17.5846 219.205 17.6367C219.361 17.6823 219.495 17.7604 219.605 17.8711C219.716 17.9753 219.804 18.1152 219.869 18.291C219.934 18.4603 219.967 18.6686 219.967 18.916C219.967 19.1569 219.934 19.3652 219.869 19.541C219.804 19.7103 219.716 19.8503 219.605 19.9609C219.495 20.0716 219.361 20.153 219.205 20.2051C219.055 20.2572 218.896 20.2832 218.727 20.2832C218.551 20.2832 218.388 20.2572 218.238 20.2051C218.089 20.153 217.958 20.0716 217.848 19.9609C217.737 19.8503 217.649 19.7103 217.584 19.541C217.519 19.3652 217.486 19.1569 217.486 18.916Z" fill="#C39C4F"/>
<defs>
<clipPath id="clip0">
<rect width="21" height="27" fill="white"/>
</clipPath>
</defs>
</svg>
