<svg width="24" height="24" viewBox="0 0 24 24" fill="none" xmlns="http://www.w3.org/2000/svg"><path d="M19.5 3.75H4.5C4.08579 3.75 3.75 4.08579 3.75 4.5V19.5C3.75 19.9142 4.08579 20.25 4.5 20.25H19.5C19.9142 20.25 20.25 19.9142 20.25 19.5V4.5C20.25 4.08579 19.9142 3.75 19.5 3.75Z" stroke="black" stroke-linecap="round" stroke-linejoin="round"></path> <path d="M11.25 10.5V16.5" stroke="black" stroke-linecap="round" stroke-linejoin="round"></path> <path d="M8.25 10.5V16.5" stroke="black" stroke-linecap="round" stroke-linejoin="round"></path> <path d="M11.25 13.125C11.25 12.4288 11.5266 11.7611 12.0188 11.2688C12.5111 10.7766 13.1788 10.5 13.875 10.5C14.5712 10.5 15.2389 10.7766 15.7312 11.2688C16.2234 11.7611 16.5 12.4288 16.5 13.125V16.5" stroke="black" stroke-linecap="round" stroke-linejoin="round"></path> <path d="M8.25 8.25C8.66421 8.25 9 7.91421 9 7.5C9 7.08579 8.66421 6.75 8.25 6.75C7.83579 6.75 7.5 7.08579 7.5 7.5C7.5 7.91421 7.83579 8.25 8.25 8.25Z" fill="black"></path></svg>