<svg width="24" height="24" viewBox="0 0 24 24" fill="none" xmlns="http://www.w3.org/2000/svg"><path d="M4.49953 18.75C4.49953 18.75 8.24953 18 8.99953 15.75C8.99953 15.75 2.99953 13.5 4.49953 5.25C4.49953 5.25 7.49953 9 11.9995 9.75V8.25027C11.9996 7.38867 12.2963 6.55337 12.8398 5.8848C13.3833 5.21624 14.1404 4.75517 14.9838 4.57913C15.8272 4.40309 16.7056 4.5228 17.4711 4.91814C18.2367 5.31348 18.8427 5.96034 19.1875 6.74997L22.4995 6.75L19.4995 9.75C19.4995 15 15.7495 20.25 8.99953 20.25C5.99953 20.25 4.49953 18.75 4.49953 18.75Z" stroke="black" stroke-linecap="round" stroke-linejoin="round"></path></svg>