<svg width="24" height="24" viewBox="0 0 24 24" fill="none" xmlns="http://www.w3.org/2000/svg"><path d="M12 15.75C14.0711 15.75 15.75 14.0711 15.75 12C15.75 9.92893 14.0711 8.25 12 8.25C9.92893 8.25 8.25 9.92893 8.25 12C8.25 14.0711 9.92893 15.75 12 15.75Z" stroke="black" stroke-linecap="round" stroke-linejoin="round"></path> <path d="M16.125 3.375H7.875C5.38972 3.375 3.375 5.38972 3.375 7.875V16.125C3.375 18.6103 5.38972 20.625 7.875 20.625H16.125C18.6103 20.625 20.625 18.6103 20.625 16.125V7.875C20.625 5.38972 18.6103 3.375 16.125 3.375Z" stroke="black" stroke-linecap="round" stroke-linejoin="round"></path> <path d="M16.875 7.875C17.2892 7.875 17.625 7.53921 17.625 7.125C17.625 6.71079 17.2892 6.375 16.875 6.375C16.4608 6.375 16.125 6.71079 16.125 7.125C16.125 7.53921 16.4608 7.875 16.875 7.875Z" fill="black"></path></svg>