<svg width="221" height="79" viewBox="0 0 221 79" fill="none" xmlns="http://www.w3.org/2000/svg">
<g clip-path="url(#clip0)">
<path d="M121.93 6.85914C121.76 6.58931 121.527 6.36328 121.251 6.19968C120.376 5.65914 117.843 4.54022 111.879 4.38347V-0.000316618C110.957 -0.00534065 110.039 0.0999308 109.143 0.313197V4.38347C103.152 4.54022 100.619 5.66455 99.7433 6.19968C99.4685 6.36472 99.2363 6.59045 99.0648 6.85914C98.7256 7.39968 98.1675 8.66455 97.8173 11.1835C98.8404 11.241 99.8667 11.1811 100.876 11.0051C100.952 9.94883 101.148 8.90441 101.461 7.89158C101.555 7.66234 101.724 7.47157 101.943 7.35104C102.66 6.93482 104.635 6.18887 109.121 6.18887V15.6754H99.6065C97.5 15.6754 97.5 15.6754 97.5 17.5186C97.6094 23.0591 98.5943 25.351 99.0593 26.1673C99.2357 26.4267 99.4696 26.643 99.7433 26.7997C100.619 27.3402 103.152 28.4591 109.121 28.6105V32.9727C110.043 32.9785 110.962 32.8714 111.857 32.6537V28.6105C117.821 28.4591 120.354 27.3348 121.229 26.7997C121.505 26.6361 121.738 26.4101 121.908 26.1402C122.455 25.3024 123.478 22.7889 123.478 16.497C123.478 10.2051 122.449 7.69698 121.93 6.85914ZM119.052 7.32941C119.27 7.44995 119.44 7.64071 119.533 7.86996C119.79 8.56725 120.305 10.697 120.359 15.6429H111.879V6.16725C116.365 6.16725 118.34 6.9132 119.052 7.32941ZM101.943 25.67C101.724 25.5494 101.555 25.3587 101.461 25.1294C101.215 24.47 100.734 22.4646 100.652 18.0537C100.652 17.3564 100.652 17.3564 101.319 17.3564H109.121V26.8321C104.613 26.8321 102.66 26.0862 101.943 25.67ZM119.052 25.67C118.34 26.0862 116.365 26.8321 111.879 26.8321V17.3348H120.359C120.305 22.2808 119.812 24.4105 119.533 25.1078C119.444 25.3451 119.274 25.544 119.052 25.67Z" fill="#C39C4F"/>
</g>
<path d="M100.167 46.41V52.8873L90.4848 41H86.7676C87.4198 41.4081 87.9874 41.9411 88.4389 42.5694V58H90.115V44.6261L101.007 58H101.843V41H99.6865C100.037 41.6482 100.167 43.1689 100.167 46.41Z" fill="#C39C4F"/>
<path d="M7.38162 41L6.90137 43.1494C6.90137 43.1494 7.38162 42.545 10.7434 42.545H12.8229V58H15.3347V42.545H17.4286C20.7904 42.545 21.2707 43.1494 21.2707 43.1494L20.7808 41H7.38162Z" fill="#C39C4F"/>
<path d="M46.5847 56.455V41H44.0537V58H55.3638L55.9497 55.8555C55.9497 55.8555 55.3542 56.455 52.0116 56.455H46.5847Z" fill="#C39C4F"/>
<path d="M151.233 56.5525V50.158H158.711L158.85 48.7299H151.233V42.4622H156.242C159.58 42.4622 160.056 43.0616 160.056 43.0616L159.609 41H148.722V58H160.032L160.584 55.9481C160.584 55.9481 159.993 56.5525 156.651 56.5525H151.233Z" fill="#C39C4F"/>
<path d="M218.474 55.4315L214.464 50.0703C217.144 49.773 218.868 48.3644 218.868 45.5717C218.868 42.4037 216.64 41.0146 213.316 41.0146H206.991V58H209.503V50.1141H211.549L217.432 58H221C221 58 219.958 57.3908 218.474 55.4315ZM209.503 48.73V42.4622H212.687C215.136 42.4622 216.049 43.8512 216.049 45.6156C216.049 47.3799 215.136 48.7397 212.687 48.7397L209.503 48.73Z" fill="#C39C4F"/>
<path d="M28.5848 41C29.0024 41.4489 29.3447 41.9643 29.5981 42.5255L22.9033 58H25.4535C25.3911 57.1373 25.6744 55.7532 26.5821 53.5843L26.6781 53.365H34.6792L36.8548 58H39.6259L31.6296 41H28.5848ZM27.3121 51.9369L30.5298 44.5189L34.0069 51.9369H27.3121Z" fill="#C39C4F"/>
<path d="M2.48293 41H0V58H2.48293V41Z" fill="#C39C4F"/>
<path d="M62.5484 41H60.7715V58H62.5484V41Z" fill="#C39C4F"/>
<path d="M72.9705 41C73.3881 41.4489 73.7304 41.9643 73.9839 42.5255L67.2891 58H69.8536C69.7912 57.1373 70.0794 55.7532 70.9822 53.5843L71.0783 53.365H79.065L81.2405 58H84.0116L76.0153 41H72.9705ZM71.6978 51.9369L74.9204 44.5189L78.4022 51.9369H71.6978Z" fill="#C39C4F"/>
<path d="M117.567 41C117.986 41.4494 118.33 41.9646 118.586 42.5255L111.9 58H114.465C114.398 57.1373 114.686 55.7532 115.594 53.5843L115.685 53.365H123.667L125.828 58H128.594L120.617 41H117.567ZM116.295 51.9369L119.512 44.5189L122.994 51.9369H116.295Z" fill="#C39C4F"/>
<path d="M130.116 41L129.636 43.1494C129.636 43.1494 130.116 42.545 133.478 42.545H135.572V58H138.083V42.545H140.177C143.539 42.545 143.995 43.1494 143.995 43.1494L143.515 41H130.116Z" fill="#C39C4F"/>
<path d="M168.133 56.455V41H165.621V58H176.926L177.512 55.8555C177.512 55.8555 176.917 56.455 173.579 56.455H168.133Z" fill="#C39C4F"/>
<path d="M184.121 41H181.638V58H184.121V41Z" fill="#C39C4F"/>
<path d="M192.583 56.5525V50.158H200.061L200.2 48.7299H192.583V42.4622H197.592C200.954 42.4622 201.41 43.0616 201.41 43.0616L200.978 41H190.091V58H201.401L201.958 55.9481C201.958 55.9481 201.362 56.5525 198.02 56.5525H192.583Z" fill="#C39C4F"/>
<path d="M19.7676 68.6035V74.1455H22.707V75H18.6982V68.6035H19.7676ZM34.2578 68.6133H35.332V72.9004C35.332 73.6003 35.1042 74.1423 34.6484 74.5264C34.196 74.9105 33.5905 75.1025 32.832 75.1025C32.0736 75.1025 31.4714 74.9105 31.0254 74.5264C30.5794 74.139 30.3564 73.597 30.3564 72.9004V68.6133H31.4209V72.9004C31.4209 73.3431 31.543 73.6784 31.7871 73.9062C32.0345 74.1341 32.3812 74.248 32.8271 74.248C33.2731 74.248 33.623 74.1341 33.877 73.9062C34.1309 73.6784 34.2578 73.3431 34.2578 72.9004V68.6133ZM44.417 68.6035L45.7549 70.9668L47.1025 68.6035H48.3721L46.3994 71.7725L48.4453 75H47.1611L45.7744 72.5977L44.3828 75H43.1182L45.1299 71.7725L43.1621 68.6035H44.417ZM60.1035 68.6133H61.1777V72.9004C61.1777 73.6003 60.9499 74.1423 60.4941 74.5264C60.0417 74.9105 59.4362 75.1025 58.6777 75.1025C57.9193 75.1025 57.3171 74.9105 56.8711 74.5264C56.4251 74.139 56.2021 73.597 56.2021 72.9004V68.6133H57.2666V72.9004C57.2666 73.3431 57.3887 73.6784 57.6328 73.9062C57.8802 74.1341 58.2269 74.248 58.6729 74.248C59.1188 74.248 59.4688 74.1341 59.7227 73.9062C59.9766 73.6784 60.1035 73.3431 60.1035 72.9004V68.6133ZM71.9326 72.3438H70.5117V75H69.4424V68.6035H71.8057C72.5251 68.6035 73.0785 68.7646 73.4658 69.0869C73.8532 69.4059 74.0469 69.8649 74.0469 70.4639C74.0469 71.1247 73.7116 71.6016 73.041 71.8945C73.7181 72.1094 74.0566 72.6139 74.0566 73.4082V73.9404C74.0566 74.4059 74.1592 74.7249 74.3643 74.8975V75H73.2656C73.0801 74.8438 72.9873 74.4873 72.9873 73.9307V73.418C72.9873 73.0859 72.8929 72.8239 72.7041 72.6318C72.5186 72.4398 72.2614 72.3438 71.9326 72.3438ZM70.5117 69.458V71.4893H71.752C72.1784 71.4893 72.4893 71.4079 72.6846 71.2451C72.8831 71.0824 72.9824 70.8333 72.9824 70.498C72.9824 70.1628 72.8831 69.9056 72.6846 69.7266C72.4893 69.5475 72.1963 69.458 71.8057 69.458H70.5117ZM84.792 75H83.7275V72.6953L81.5449 68.6035H82.7363L84.2744 71.7139L85.8174 68.6035H87.0088L84.792 72.7539V75ZM105.379 68.6035V74.1455H108.318V75H104.31V68.6035H105.379ZM117.311 68.6035V75H116.246V68.6035H117.311ZM129.643 71.416V72.2705H126.84V75H125.771V68.6035H130.092V69.458H126.84V71.416H129.643ZM141.862 71.2646V72.1191H139.064V74.1455H142.312V75H137.995V68.6035H142.282V69.458H139.064V71.2646H141.862ZM152.432 74.2578C152.826 74.2578 153.132 74.1797 153.35 74.0234C153.571 73.8639 153.682 73.6475 153.682 73.374C153.682 73.1006 153.581 72.8792 153.379 72.71C153.18 72.5407 152.834 72.3893 152.339 72.2559C151.593 72.0573 151.035 71.8034 150.664 71.4941C150.293 71.1816 150.107 70.7747 150.107 70.2734C150.107 69.7689 150.321 69.3506 150.747 69.0186C151.174 68.6865 151.729 68.5205 152.412 68.5205C153.096 68.5205 153.652 68.7061 154.082 69.0771C154.515 69.4482 154.725 69.9056 154.712 70.4492L154.702 70.4736H153.677C153.677 70.1383 153.564 69.8714 153.34 69.6729C153.115 69.471 152.804 69.3701 152.407 69.3701C152.013 69.3701 151.709 69.4548 151.494 69.624C151.283 69.79 151.177 70.0033 151.177 70.2637C151.177 70.5208 151.289 70.7292 151.514 70.8887C151.738 71.0482 152.116 71.2012 152.646 71.3477C153.35 71.5365 153.875 71.7952 154.224 72.124C154.575 72.4495 154.751 72.8695 154.751 73.3838C154.751 73.8981 154.539 74.3132 154.116 74.6289C153.693 74.9447 153.132 75.1025 152.432 75.1025C152.096 75.1025 151.776 75.057 151.47 74.9658C151.167 74.8714 150.9 74.7412 150.669 74.5752C150.438 74.4092 150.256 74.2008 150.122 73.9502C149.989 73.6963 149.925 73.4196 149.932 73.1201L149.941 73.0957H150.972C150.972 73.4733 151.102 73.7614 151.362 73.96C151.623 74.1553 151.978 74.2529 152.427 74.2529L152.432 74.2578ZM167.249 68.6035V69.458H165.315V75H164.246V69.458H162.312V68.6035H167.249ZM177.765 75H176.7V72.6953L174.518 68.6035H175.709L177.247 71.7139L178.79 68.6035H179.981L177.765 72.7539V75ZM188.812 68.6035V74.1455H191.752V75H187.743V68.6035H188.812ZM203.483 71.2646V72.1191H200.686V74.1455H203.933V75H199.616V68.6035H203.903V69.458H200.686V71.2646H203.483Z" fill="#C39C4F"/>
<defs>
<clipPath id="clip0">
<rect width="26" height="33" fill="white" transform="translate(97.5)"/>
</clipPath>
</defs>
</svg>
